<svg width="2109" height="1140" viewBox="0 0 2109 1140" fill="none" xmlns="http://www.w3.org/2000/svg">
<g clip-path="url(#clip0_9042_9)">
<rect width="2109" height="1140" fill="#1F1F1F"/>
<g clip-path="url(#clip1_9042_9)">
<path d="M141.829 95.6366C143.943 95.6366 145.657 93.9271 145.657 91.8183C145.657 89.7095 143.943 88 141.829 88C139.714 88 138 89.7095 138 91.8183C138 93.9271 139.714 95.6366 141.829 95.6366Z" fill="#272727"/>
<path d="M159.724 95.6366C161.839 95.6366 163.553 93.9271 163.553 91.8183C163.553 89.7095 161.839 88 159.724 88C157.609 88 155.895 89.7095 155.895 91.8183C155.895 93.9271 157.609 95.6366 159.724 95.6366Z" fill="#272727"/>
<path d="M177.622 95.6366C179.736 95.6366 181.45 93.9271 181.45 91.8183C181.45 89.7095 179.736 88 177.622 88C175.507 88 173.793 89.7095 173.793 91.8183C173.793 93.9271 175.507 95.6366 177.622 95.6366Z" fill="#272727"/>
<path d="M195.519 95.6366C197.634 95.6366 199.348 93.9271 199.348 91.8183C199.348 89.7095 197.634 88 195.519 88C193.405 88 191.69 89.7095 191.69 91.8183C191.69 93.9271 193.405 95.6366 195.519 95.6366Z" fill="#272727"/>
<path d="M213.414 95.6366C215.529 95.6366 217.243 93.9271 217.243 91.8183C217.243 89.7095 215.529 88 213.414 88C211.3 88 209.586 89.7095 209.586 91.8183C209.586 93.9271 211.3 95.6366 213.414 95.6366Z" fill="#272727"/>
<path d="M231.31 95.6366C233.424 95.6366 235.138 93.9271 235.138 91.8183C235.138 89.7095 233.424 88 231.31 88C229.195 88 227.481 89.7095 227.481 91.8183C227.481 93.9271 229.195 95.6366 231.31 95.6366Z" fill="#272727"/>
<path d="M249.207 95.6366C251.322 95.6366 253.036 93.9271 253.036 91.8183C253.036 89.7095 251.322 88 249.207 88C247.093 88 245.378 89.7095 245.378 91.8183C245.378 93.9271 247.093 95.6366 249.207 95.6366Z" fill="#272727"/>
<path d="M267.105 95.6366C269.219 95.6366 270.933 93.9271 270.933 91.8183C270.933 89.7095 269.219 88 267.105 88C264.99 88 263.276 89.7095 263.276 91.8183C263.276 93.9271 264.99 95.6366 267.105 95.6366Z" fill="#272727"/>
<path d="M285 95.6366C287.115 95.6366 288.829 93.9271 288.829 91.8183C288.829 89.7095 287.115 88 285 88C282.885 88 281.171 89.7095 281.171 91.8183C281.171 93.9271 282.885 95.6366 285 95.6366Z" fill="#272727"/>
<path d="M302.895 95.6366C305.01 95.6366 306.724 93.9271 306.724 91.8183C306.724 89.7095 305.01 88 302.895 88C300.781 88 299.067 89.7095 299.067 91.8183C299.067 93.9271 300.781 95.6366 302.895 95.6366Z" fill="#272727"/>
<path d="M320.793 95.6366C322.907 95.6366 324.622 93.9271 324.622 91.8183C324.622 89.7095 322.907 88 320.793 88C318.678 88 316.964 89.7095 316.964 91.8183C316.964 93.9271 318.678 95.6366 320.793 95.6366Z" fill="#272727"/>
<path d="M338.69 95.6366C340.805 95.6366 342.519 93.9271 342.519 91.8183C342.519 89.7095 340.805 88 338.69 88C336.576 88 334.862 89.7095 334.862 91.8183C334.862 93.9271 336.576 95.6366 338.69 95.6366Z" fill="#272727"/>
<path d="M356.586 95.6366C358.7 95.6366 360.414 93.9271 360.414 91.8183C360.414 89.7095 358.7 88 356.586 88C354.471 88 352.757 89.7095 352.757 91.8183C352.757 93.9271 354.471 95.6366 356.586 95.6366Z" fill="#272727"/>
<path d="M374.481 95.6366C376.595 95.6366 378.31 93.9271 378.31 91.8183C378.31 89.7095 376.595 88 374.481 88C372.366 88 370.652 89.7095 370.652 91.8183C370.652 93.9271 372.366 95.6366 374.481 95.6366Z" fill="#272727"/>
<path d="M392.378 95.6366C394.493 95.6366 396.207 93.9271 396.207 91.8183C396.207 89.7095 394.493 88 392.378 88C390.264 88 388.55 89.7095 388.55 91.8183C388.55 93.9271 390.264 95.6366 392.378 95.6366Z" fill="#272727"/>
<path d="M410.276 95.6366C412.391 95.6366 414.105 93.9271 414.105 91.8183C414.105 89.7095 412.391 88 410.276 88C408.161 88 406.447 89.7095 406.447 91.8183C406.447 93.9271 408.161 95.6366 410.276 95.6366Z" fill="#272727"/>
<path d="M428.171 95.6366C430.286 95.6366 432 93.9271 432 91.8183C432 89.7095 430.286 88 428.171 88C426.057 88 424.343 89.7095 424.343 91.8183C424.343 93.9271 426.057 95.6366 428.171 95.6366Z" fill="#272727"/>
<path d="M141.829 112.472C143.943 112.472 145.657 110.762 145.657 108.654C145.657 106.545 143.943 104.835 141.829 104.835C139.714 104.835 138 106.545 138 108.654C138 110.762 139.714 112.472 141.829 112.472Z" fill="#272727"/>
<path d="M159.724 112.472C161.839 112.472 163.553 110.762 163.553 108.654C163.553 106.545 161.839 104.835 159.724 104.835C157.609 104.835 155.895 106.545 155.895 108.654C155.895 110.762 157.609 112.472 159.724 112.472Z" fill="#272727"/>
<path d="M177.622 112.472C179.736 112.472 181.45 110.762 181.45 108.654C181.45 106.545 179.736 104.835 177.622 104.835C175.507 104.835 173.793 106.545 173.793 108.654C173.793 110.762 175.507 112.472 177.622 112.472Z" fill="#272727"/>
<path d="M195.519 112.472C197.634 112.472 199.348 110.762 199.348 108.654C199.348 106.545 197.634 104.835 195.519 104.835C193.405 104.835 191.69 106.545 191.69 108.654C191.69 110.762 193.405 112.472 195.519 112.472Z" fill="#272727"/>
<path d="M213.414 112.472C215.529 112.472 217.243 110.762 217.243 108.654C217.243 106.545 215.529 104.835 213.414 104.835C211.3 104.835 209.586 106.545 209.586 108.654C209.586 110.762 211.3 112.472 213.414 112.472Z" fill="#272727"/>
<path d="M231.31 112.472C233.424 112.472 235.138 110.762 235.138 108.654C235.138 106.545 233.424 104.835 231.31 104.835C229.195 104.835 227.481 106.545 227.481 108.654C227.481 110.762 229.195 112.472 231.31 112.472Z" fill="#272727"/>
<path d="M249.207 112.472C251.322 112.472 253.036 110.762 253.036 108.654C253.036 106.545 251.322 104.835 249.207 104.835C247.093 104.835 245.378 106.545 245.378 108.654C245.378 110.762 247.093 112.472 249.207 112.472Z" fill="#272727"/>
<path d="M267.105 112.472C269.219 112.472 270.933 110.762 270.933 108.654C270.933 106.545 269.219 104.835 267.105 104.835C264.99 104.835 263.276 106.545 263.276 108.654C263.276 110.762 264.99 112.472 267.105 112.472Z" fill="#272727"/>
<path d="M285 112.472C287.115 112.472 288.829 110.762 288.829 108.654C288.829 106.545 287.115 104.835 285 104.835C282.885 104.835 281.171 106.545 281.171 108.654C281.171 110.762 282.885 112.472 285 112.472Z" fill="#272727"/>
<path d="M302.895 112.472C305.01 112.472 306.724 110.762 306.724 108.654C306.724 106.545 305.01 104.835 302.895 104.835C300.781 104.835 299.067 106.545 299.067 108.654C299.067 110.762 300.781 112.472 302.895 112.472Z" fill="#272727"/>
<path d="M320.793 112.472C322.907 112.472 324.622 110.762 324.622 108.654C324.622 106.545 322.907 104.835 320.793 104.835C318.678 104.835 316.964 106.545 316.964 108.654C316.964 110.762 318.678 112.472 320.793 112.472Z" fill="#272727"/>
<path d="M338.69 112.472C340.805 112.472 342.519 110.762 342.519 108.654C342.519 106.545 340.805 104.835 338.69 104.835C336.576 104.835 334.862 106.545 334.862 108.654C334.862 110.762 336.576 112.472 338.69 112.472Z" fill="#272727"/>
<path d="M356.586 112.472C358.7 112.472 360.414 110.762 360.414 108.654C360.414 106.545 358.7 104.835 356.586 104.835C354.471 104.835 352.757 106.545 352.757 108.654C352.757 110.762 354.471 112.472 356.586 112.472Z" fill="#272727"/>
<path d="M374.481 112.472C376.595 112.472 378.31 110.762 378.31 108.654C378.31 106.545 376.595 104.835 374.481 104.835C372.366 104.835 370.652 106.545 370.652 108.654C370.652 110.762 372.366 112.472 374.481 112.472Z" fill="#272727"/>
<path d="M392.378 112.472C394.493 112.472 396.207 110.762 396.207 108.654C396.207 106.545 394.493 104.835 392.378 104.835C390.264 104.835 388.55 106.545 388.55 108.654C388.55 110.762 390.264 112.472 392.378 112.472Z" fill="#272727"/>
<path d="M410.276 112.472C412.391 112.472 414.105 110.762 414.105 108.654C414.105 106.545 412.391 104.835 410.276 104.835C408.161 104.835 406.447 106.545 406.447 108.654C406.447 110.762 408.161 112.472 410.276 112.472Z" fill="#272727"/>
<path d="M428.171 112.472C430.286 112.472 432 110.762 432 108.654C432 106.545 430.286 104.835 428.171 104.835C426.057 104.835 424.343 106.545 424.343 108.654C424.343 110.762 426.057 112.472 428.171 112.472Z" fill="#272727"/>
<path d="M141.829 129.307C143.943 129.307 145.657 127.598 145.657 125.489C145.657 123.38 143.943 121.67 141.829 121.67C139.714 121.67 138 123.38 138 125.489C138 127.598 139.714 129.307 141.829 129.307Z" fill="#272727"/>
<path d="M159.724 129.307C161.839 129.307 163.553 127.598 163.553 125.489C163.553 123.38 161.839 121.67 159.724 121.67C157.609 121.67 155.895 123.38 155.895 125.489C155.895 127.598 157.609 129.307 159.724 129.307Z" fill="#272727"/>
<path d="M177.622 129.307C179.736 129.307 181.45 127.598 181.45 125.489C181.45 123.38 179.736 121.67 177.622 121.67C175.507 121.67 173.793 123.38 173.793 125.489C173.793 127.598 175.507 129.307 177.622 129.307Z" fill="#272727"/>
<path d="M195.519 129.307C197.634 129.307 199.348 127.598 199.348 125.489C199.348 123.38 197.634 121.67 195.519 121.67C193.405 121.67 191.69 123.38 191.69 125.489C191.69 127.598 193.405 129.307 195.519 129.307Z" fill="#272727"/>
<path d="M213.414 129.307C215.529 129.307 217.243 127.598 217.243 125.489C217.243 123.38 215.529 121.67 213.414 121.67C211.3 121.67 209.586 123.38 209.586 125.489C209.586 127.598 211.3 129.307 213.414 129.307Z" fill="#272727"/>
<path d="M231.31 129.307C233.424 129.307 235.138 127.598 235.138 125.489C235.138 123.38 233.424 121.67 231.31 121.67C229.195 121.67 227.481 123.38 227.481 125.489C227.481 127.598 229.195 129.307 231.31 129.307Z" fill="#272727"/>
<path d="M249.207 129.307C251.322 129.307 253.036 127.598 253.036 125.489C253.036 123.38 251.322 121.67 249.207 121.67C247.093 121.67 245.378 123.38 245.378 125.489C245.378 127.598 247.093 129.307 249.207 129.307Z" fill="#272727"/>
<path d="M267.105 129.307C269.219 129.307 270.933 127.598 270.933 125.489C270.933 123.38 269.219 121.67 267.105 121.67C264.99 121.67 263.276 123.38 263.276 125.489C263.276 127.598 264.99 129.307 267.105 129.307Z" fill="#272727"/>
<path d="M285 129.307C287.115 129.307 288.829 127.598 288.829 125.489C288.829 123.38 287.115 121.67 285 121.67C282.885 121.67 281.171 123.38 281.171 125.489C281.171 127.598 282.885 129.307 285 129.307Z" fill="#272727"/>
<path d="M302.895 129.307C305.01 129.307 306.724 127.598 306.724 125.489C306.724 123.38 305.01 121.67 302.895 121.67C300.781 121.67 299.067 123.38 299.067 125.489C299.067 127.598 300.781 129.307 302.895 129.307Z" fill="#272727"/>
<path d="M320.793 129.307C322.907 129.307 324.622 127.598 324.622 125.489C324.622 123.38 322.907 121.67 320.793 121.67C318.678 121.67 316.964 123.38 316.964 125.489C316.964 127.598 318.678 129.307 320.793 129.307Z" fill="#272727"/>
<path d="M338.69 129.307C340.805 129.307 342.519 127.598 342.519 125.489C342.519 123.38 340.805 121.67 338.69 121.67C336.576 121.67 334.862 123.38 334.862 125.489C334.862 127.598 336.576 129.307 338.69 129.307Z" fill="#272727"/>
<path d="M356.586 129.307C358.7 129.307 360.414 127.598 360.414 125.489C360.414 123.38 358.7 121.67 356.586 121.67C354.471 121.67 352.757 123.38 352.757 125.489C352.757 127.598 354.471 129.307 356.586 129.307Z" fill="#272727"/>
<path d="M374.481 129.307C376.595 129.307 378.31 127.598 378.31 125.489C378.31 123.38 376.595 121.67 374.481 121.67C372.366 121.67 370.652 123.38 370.652 125.489C370.652 127.598 372.366 129.307 374.481 129.307Z" fill="#272727"/>
<path d="M392.378 129.307C394.493 129.307 396.207 127.598 396.207 125.489C396.207 123.38 394.493 121.67 392.378 121.67C390.264 121.67 388.55 123.38 388.55 125.489C388.55 127.598 390.264 129.307 392.378 129.307Z" fill="#272727"/>
<path d="M410.276 129.307C412.391 129.307 414.105 127.598 414.105 125.489C414.105 123.38 412.391 121.67 410.276 121.67C408.161 121.67 406.447 123.38 406.447 125.489C406.447 127.598 408.161 129.307 410.276 129.307Z" fill="#272727"/>
<path d="M428.171 129.307C430.286 129.307 432 127.598 432 125.489C432 123.38 430.286 121.67 428.171 121.67C426.057 121.67 424.343 123.38 424.343 125.489C424.343 127.598 426.057 129.307 428.171 129.307Z" fill="#272727"/>
<path d="M141.829 146.142C143.943 146.142 145.657 144.433 145.657 142.324C145.657 140.215 143.943 138.506 141.829 138.506C139.714 138.506 138 140.215 138 142.324C138 144.433 139.714 146.142 141.829 146.142Z" fill="#272727"/>
<path d="M159.724 146.142C161.839 146.142 163.553 144.433 163.553 142.324C163.553 140.215 161.839 138.506 159.724 138.506C157.609 138.506 155.895 140.215 155.895 142.324C155.895 144.433 157.609 146.142 159.724 146.142Z" fill="#272727"/>
<path d="M177.622 146.142C179.736 146.142 181.45 144.433 181.45 142.324C181.45 140.215 179.736 138.506 177.622 138.506C175.507 138.506 173.793 140.215 173.793 142.324C173.793 144.433 175.507 146.142 177.622 146.142Z" fill="#272727"/>
<path d="M195.519 146.142C197.634 146.142 199.348 144.433 199.348 142.324C199.348 140.215 197.634 138.506 195.519 138.506C193.405 138.506 191.69 140.215 191.69 142.324C191.69 144.433 193.405 146.142 195.519 146.142Z" fill="#272727"/>
<path d="M213.414 146.142C215.529 146.142 217.243 144.433 217.243 142.324C217.243 140.215 215.529 138.506 213.414 138.506C211.3 138.506 209.586 140.215 209.586 142.324C209.586 144.433 211.3 146.142 213.414 146.142Z" fill="#272727"/>
<path d="M231.31 146.142C233.424 146.142 235.138 144.433 235.138 142.324C235.138 140.215 233.424 138.506 231.31 138.506C229.195 138.506 227.481 140.215 227.481 142.324C227.481 144.433 229.195 146.142 231.31 146.142Z" fill="#272727"/>
<path d="M249.207 146.142C251.322 146.142 253.036 144.433 253.036 142.324C253.036 140.215 251.322 138.506 249.207 138.506C247.093 138.506 245.378 140.215 245.378 142.324C245.378 144.433 247.093 146.142 249.207 146.142Z" fill="#272727"/>
<path d="M267.105 146.142C269.219 146.142 270.933 144.433 270.933 142.324C270.933 140.215 269.219 138.506 267.105 138.506C264.99 138.506 263.276 140.215 263.276 142.324C263.276 144.433 264.99 146.142 267.105 146.142Z" fill="#272727"/>
<path d="M285 146.142C287.115 146.142 288.829 144.433 288.829 142.324C288.829 140.215 287.115 138.506 285 138.506C282.885 138.506 281.171 140.215 281.171 142.324C281.171 144.433 282.885 146.142 285 146.142Z" fill="#272727"/>
<path d="M302.895 146.142C305.01 146.142 306.724 144.433 306.724 142.324C306.724 140.215 305.01 138.506 302.895 138.506C300.781 138.506 299.067 140.215 299.067 142.324C299.067 144.433 300.781 146.142 302.895 146.142Z" fill="#272727"/>
<path d="M320.793 146.142C322.907 146.142 324.622 144.433 324.622 142.324C324.622 140.215 322.907 138.506 320.793 138.506C318.678 138.506 316.964 140.215 316.964 142.324C316.964 144.433 318.678 146.142 320.793 146.142Z" fill="#272727"/>
<path d="M338.69 146.142C340.805 146.142 342.519 144.433 342.519 142.324C342.519 140.215 340.805 138.506 338.69 138.506C336.576 138.506 334.862 140.215 334.862 142.324C334.862 144.433 336.576 146.142 338.69 146.142Z" fill="#272727"/>
<path d="M356.586 146.142C358.7 146.142 360.414 144.433 360.414 142.324C360.414 140.215 358.7 138.506 356.586 138.506C354.471 138.506 352.757 140.215 352.757 142.324C352.757 144.433 354.471 146.142 356.586 146.142Z" fill="#272727"/>
<path d="M374.481 146.142C376.595 146.142 378.31 144.433 378.31 142.324C378.31 140.215 376.595 138.506 374.481 138.506C372.366 138.506 370.652 140.215 370.652 142.324C370.652 144.433 372.366 146.142 374.481 146.142Z" fill="#272727"/>
<path d="M392.378 146.142C394.493 146.142 396.207 144.433 396.207 142.324C396.207 140.215 394.493 138.506 392.378 138.506C390.264 138.506 388.55 140.215 388.55 142.324C388.55 144.433 390.264 146.142 392.378 146.142Z" fill="#272727"/>
<path d="M410.276 146.142C412.391 146.142 414.105 144.433 414.105 142.324C414.105 140.215 412.391 138.506 410.276 138.506C408.161 138.506 406.447 140.215 406.447 142.324C406.447 144.433 408.161 146.142 410.276 146.142Z" fill="#272727"/>
<path d="M428.171 146.142C430.286 146.142 432 144.433 432 142.324C432 140.215 430.286 138.506 428.171 138.506C426.057 138.506 424.343 140.215 424.343 142.324C424.343 144.433 426.057 146.142 428.171 146.142Z" fill="#272727"/>
<path d="M141.829 162.977C143.943 162.977 145.657 161.268 145.657 159.159C145.657 157.05 143.943 155.341 141.829 155.341C139.714 155.341 138 157.05 138 159.159C138 161.268 139.714 162.977 141.829 162.977Z" fill="#272727"/>
<path d="M159.724 162.977C161.839 162.977 163.553 161.268 163.553 159.159C163.553 157.05 161.839 155.341 159.724 155.341C157.609 155.341 155.895 157.05 155.895 159.159C155.895 161.268 157.609 162.977 159.724 162.977Z" fill="#272727"/>
<path d="M177.622 162.977C179.736 162.977 181.45 161.268 181.45 159.159C181.45 157.05 179.736 155.341 177.622 155.341C175.507 155.341 173.793 157.05 173.793 159.159C173.793 161.268 175.507 162.977 177.622 162.977Z" fill="#272727"/>
<path d="M195.519 162.977C197.634 162.977 199.348 161.268 199.348 159.159C199.348 157.05 197.634 155.341 195.519 155.341C193.405 155.341 191.69 157.05 191.69 159.159C191.69 161.268 193.405 162.977 195.519 162.977Z" fill="#272727"/>
<path d="M213.414 162.977C215.529 162.977 217.243 161.268 217.243 159.159C217.243 157.05 215.529 155.341 213.414 155.341C211.3 155.341 209.586 157.05 209.586 159.159C209.586 161.268 211.3 162.977 213.414 162.977Z" fill="#272727"/>
<path d="M231.31 162.977C233.424 162.977 235.138 161.268 235.138 159.159C235.138 157.05 233.424 155.341 231.31 155.341C229.195 155.341 227.481 157.05 227.481 159.159C227.481 161.268 229.195 162.977 231.31 162.977Z" fill="#272727"/>
<path d="M249.207 162.977C251.322 162.977 253.036 161.268 253.036 159.159C253.036 157.05 251.322 155.341 249.207 155.341C247.093 155.341 245.378 157.05 245.378 159.159C245.378 161.268 247.093 162.977 249.207 162.977Z" fill="#272727"/>
<path d="M267.105 162.977C269.219 162.977 270.933 161.268 270.933 159.159C270.933 157.05 269.219 155.341 267.105 155.341C264.99 155.341 263.276 157.05 263.276 159.159C263.276 161.268 264.99 162.977 267.105 162.977Z" fill="#272727"/>
<path d="M285 162.977C287.115 162.977 288.829 161.268 288.829 159.159C288.829 157.05 287.115 155.341 285 155.341C282.885 155.341 281.171 157.05 281.171 159.159C281.171 161.268 282.885 162.977 285 162.977Z" fill="#272727"/>
<path d="M302.895 162.977C305.01 162.977 306.724 161.268 306.724 159.159C306.724 157.05 305.01 155.341 302.895 155.341C300.781 155.341 299.067 157.05 299.067 159.159C299.067 161.268 300.781 162.977 302.895 162.977Z" fill="#272727"/>
<path d="M320.793 162.977C322.907 162.977 324.622 161.268 324.622 159.159C324.622 157.05 322.907 155.341 320.793 155.341C318.678 155.341 316.964 157.05 316.964 159.159C316.964 161.268 318.678 162.977 320.793 162.977Z" fill="#272727"/>
<path d="M338.69 162.977C340.805 162.977 342.519 161.268 342.519 159.159C342.519 157.05 340.805 155.341 338.69 155.341C336.576 155.341 334.862 157.05 334.862 159.159C334.862 161.268 336.576 162.977 338.69 162.977Z" fill="#272727"/>
<path d="M356.586 162.977C358.7 162.977 360.414 161.268 360.414 159.159C360.414 157.05 358.7 155.341 356.586 155.341C354.471 155.341 352.757 157.05 352.757 159.159C352.757 161.268 354.471 162.977 356.586 162.977Z" fill="#272727"/>
<path d="M374.481 162.977C376.595 162.977 378.31 161.268 378.31 159.159C378.31 157.05 376.595 155.341 374.481 155.341C372.366 155.341 370.652 157.05 370.652 159.159C370.652 161.268 372.366 162.977 374.481 162.977Z" fill="#272727"/>
<path d="M392.378 162.977C394.493 162.977 396.207 161.268 396.207 159.159C396.207 157.05 394.493 155.341 392.378 155.341C390.264 155.341 388.55 157.05 388.55 159.159C388.55 161.268 390.264 162.977 392.378 162.977Z" fill="#272727"/>
<path d="M410.276 162.977C412.391 162.977 414.105 161.268 414.105 159.159C414.105 157.05 412.391 155.341 410.276 155.341C408.161 155.341 406.447 157.05 406.447 159.159C406.447 161.268 408.161 162.977 410.276 162.977Z" fill="#272727"/>
<path d="M428.171 162.977C430.286 162.977 432 161.268 432 159.159C432 157.05 430.286 155.341 428.171 155.341C426.057 155.341 424.343 157.05 424.343 159.159C424.343 161.268 426.057 162.977 428.171 162.977Z" fill="#272727"/>
<path d="M141.829 179.813C143.943 179.813 145.657 178.103 145.657 175.994C145.657 173.886 143.943 172.176 141.829 172.176C139.714 172.176 138 173.886 138 175.994C138 178.103 139.714 179.813 141.829 179.813Z" fill="#272727"/>
<path d="M159.724 179.813C161.839 179.813 163.553 178.103 163.553 175.994C163.553 173.886 161.839 172.176 159.724 172.176C157.609 172.176 155.895 173.886 155.895 175.994C155.895 178.103 157.609 179.813 159.724 179.813Z" fill="#272727"/>
<path d="M177.622 179.813C179.736 179.813 181.45 178.103 181.45 175.994C181.45 173.886 179.736 172.176 177.622 172.176C175.507 172.176 173.793 173.886 173.793 175.994C173.793 178.103 175.507 179.813 177.622 179.813Z" fill="#272727"/>
<path d="M195.519 179.813C197.634 179.813 199.348 178.103 199.348 175.994C199.348 173.886 197.634 172.176 195.519 172.176C193.405 172.176 191.69 173.886 191.69 175.994C191.69 178.103 193.405 179.813 195.519 179.813Z" fill="#272727"/>
<path d="M213.414 179.813C215.529 179.813 217.243 178.103 217.243 175.994C217.243 173.886 215.529 172.176 213.414 172.176C211.3 172.176 209.586 173.886 209.586 175.994C209.586 178.103 211.3 179.813 213.414 179.813Z" fill="#272727"/>
<path d="M231.31 179.813C233.424 179.813 235.138 178.103 235.138 175.994C235.138 173.886 233.424 172.176 231.31 172.176C229.195 172.176 227.481 173.886 227.481 175.994C227.481 178.103 229.195 179.813 231.31 179.813Z" fill="#272727"/>
<path d="M249.207 179.813C251.322 179.813 253.036 178.103 253.036 175.994C253.036 173.886 251.322 172.176 249.207 172.176C247.093 172.176 245.378 173.886 245.378 175.994C245.378 178.103 247.093 179.813 249.207 179.813Z" fill="#272727"/>
<path d="M267.105 179.813C269.219 179.813 270.933 178.103 270.933 175.994C270.933 173.886 269.219 172.176 267.105 172.176C264.99 172.176 263.276 173.886 263.276 175.994C263.276 178.103 264.99 179.813 267.105 179.813Z" fill="#272727"/>
<path d="M285 179.813C287.115 179.813 288.829 178.103 288.829 175.994C288.829 173.886 287.115 172.176 285 172.176C282.885 172.176 281.171 173.886 281.171 175.994C281.171 178.103 282.885 179.813 285 179.813Z" fill="#272727"/>
<path d="M302.895 179.813C305.01 179.813 306.724 178.103 306.724 175.994C306.724 173.886 305.01 172.176 302.895 172.176C300.781 172.176 299.067 173.886 299.067 175.994C299.067 178.103 300.781 179.813 302.895 179.813Z" fill="#272727"/>
<path d="M320.793 179.813C322.907 179.813 324.622 178.103 324.622 175.994C324.622 173.886 322.907 172.176 320.793 172.176C318.678 172.176 316.964 173.886 316.964 175.994C316.964 178.103 318.678 179.813 320.793 179.813Z" fill="#272727"/>
<path d="M338.69 179.813C340.805 179.813 342.519 178.103 342.519 175.994C342.519 173.886 340.805 172.176 338.69 172.176C336.576 172.176 334.862 173.886 334.862 175.994C334.862 178.103 336.576 179.813 338.69 179.813Z" fill="#272727"/>
<path d="M356.586 179.813C358.7 179.813 360.414 178.103 360.414 175.994C360.414 173.886 358.7 172.176 356.586 172.176C354.471 172.176 352.757 173.886 352.757 175.994C352.757 178.103 354.471 179.813 356.586 179.813Z" fill="#272727"/>
<path d="M374.481 179.813C376.595 179.813 378.31 178.103 378.31 175.994C378.31 173.886 376.595 172.176 374.481 172.176C372.366 172.176 370.652 173.886 370.652 175.994C370.652 178.103 372.366 179.813 374.481 179.813Z" fill="#272727"/>
<path d="M392.378 179.813C394.493 179.813 396.207 178.103 396.207 175.994C396.207 173.886 394.493 172.176 392.378 172.176C390.264 172.176 388.55 173.886 388.55 175.994C388.55 178.103 390.264 179.813 392.378 179.813Z" fill="#272727"/>
<path d="M410.276 179.813C412.391 179.813 414.105 178.103 414.105 175.994C414.105 173.886 412.391 172.176 410.276 172.176C408.161 172.176 406.447 173.886 406.447 175.994C406.447 178.103 408.161 179.813 410.276 179.813Z" fill="#272727"/>
<path d="M428.171 179.813C430.286 179.813 432 178.103 432 175.994C432 173.886 430.286 172.176 428.171 172.176C426.057 172.176 424.343 173.886 424.343 175.994C424.343 178.103 426.057 179.813 428.171 179.813Z" fill="#272727"/>
<path d="M141.829 196.648C143.943 196.648 145.657 194.938 145.657 192.83C145.657 190.721 143.943 189.011 141.829 189.011C139.714 189.011 138 190.721 138 192.83C138 194.938 139.714 196.648 141.829 196.648Z" fill="#272727"/>
<path d="M159.724 196.648C161.839 196.648 163.553 194.938 163.553 192.83C163.553 190.721 161.839 189.011 159.724 189.011C157.609 189.011 155.895 190.721 155.895 192.83C155.895 194.938 157.609 196.648 159.724 196.648Z" fill="#272727"/>
<path d="M177.622 196.648C179.736 196.648 181.45 194.938 181.45 192.83C181.45 190.721 179.736 189.011 177.622 189.011C175.507 189.011 173.793 190.721 173.793 192.83C173.793 194.938 175.507 196.648 177.622 196.648Z" fill="#272727"/>
<path d="M195.519 196.648C197.634 196.648 199.348 194.938 199.348 192.83C199.348 190.721 197.634 189.011 195.519 189.011C193.405 189.011 191.69 190.721 191.69 192.83C191.69 194.938 193.405 196.648 195.519 196.648Z" fill="#272727"/>
<path d="M213.414 196.648C215.529 196.648 217.243 194.938 217.243 192.83C217.243 190.721 215.529 189.011 213.414 189.011C211.3 189.011 209.586 190.721 209.586 192.83C209.586 194.938 211.3 196.648 213.414 196.648Z" fill="#272727"/>
<path d="M231.31 196.648C233.424 196.648 235.138 194.938 235.138 192.83C235.138 190.721 233.424 189.011 231.31 189.011C229.195 189.011 227.481 190.721 227.481 192.83C227.481 194.938 229.195 196.648 231.31 196.648Z" fill="#272727"/>
<path d="M249.207 196.648C251.322 196.648 253.036 194.938 253.036 192.83C253.036 190.721 251.322 189.011 249.207 189.011C247.093 189.011 245.378 190.721 245.378 192.83C245.378 194.938 247.093 196.648 249.207 196.648Z" fill="#272727"/>
<path d="M267.105 196.648C269.219 196.648 270.933 194.938 270.933 192.83C270.933 190.721 269.219 189.011 267.105 189.011C264.99 189.011 263.276 190.721 263.276 192.83C263.276 194.938 264.99 196.648 267.105 196.648Z" fill="#272727"/>
<path d="M285 196.648C287.115 196.648 288.829 194.938 288.829 192.83C288.829 190.721 287.115 189.011 285 189.011C282.885 189.011 281.171 190.721 281.171 192.83C281.171 194.938 282.885 196.648 285 196.648Z" fill="#272727"/>
<path d="M302.895 196.648C305.01 196.648 306.724 194.938 306.724 192.83C306.724 190.721 305.01 189.011 302.895 189.011C300.781 189.011 299.067 190.721 299.067 192.83C299.067 194.938 300.781 196.648 302.895 196.648Z" fill="#272727"/>
<path d="M320.793 196.648C322.907 196.648 324.622 194.938 324.622 192.83C324.622 190.721 322.907 189.011 320.793 189.011C318.678 189.011 316.964 190.721 316.964 192.83C316.964 194.938 318.678 196.648 320.793 196.648Z" fill="#272727"/>
<path d="M338.69 196.648C340.805 196.648 342.519 194.938 342.519 192.83C342.519 190.721 340.805 189.011 338.69 189.011C336.576 189.011 334.862 190.721 334.862 192.83C334.862 194.938 336.576 196.648 338.69 196.648Z" fill="#272727"/>
<path d="M356.586 196.648C358.7 196.648 360.414 194.938 360.414 192.83C360.414 190.721 358.7 189.011 356.586 189.011C354.471 189.011 352.757 190.721 352.757 192.83C352.757 194.938 354.471 196.648 356.586 196.648Z" fill="#272727"/>
<path d="M374.481 196.648C376.595 196.648 378.31 194.938 378.31 192.83C378.31 190.721 376.595 189.011 374.481 189.011C372.366 189.011 370.652 190.721 370.652 192.83C370.652 194.938 372.366 196.648 374.481 196.648Z" fill="#272727"/>
<path d="M392.378 196.648C394.493 196.648 396.207 194.938 396.207 192.83C396.207 190.721 394.493 189.011 392.378 189.011C390.264 189.011 388.55 190.721 388.55 192.83C388.55 194.938 390.264 196.648 392.378 196.648Z" fill="#272727"/>
<path d="M410.276 196.648C412.391 196.648 414.105 194.938 414.105 192.83C414.105 190.721 412.391 189.011 410.276 189.011C408.161 189.011 406.447 190.721 406.447 192.83C406.447 194.938 408.161 196.648 410.276 196.648Z" fill="#272727"/>
<path d="M428.171 196.648C430.286 196.648 432 194.938 432 192.83C432 190.721 430.286 189.011 428.171 189.011C426.057 189.011 424.343 190.721 424.343 192.83C424.343 194.938 426.057 196.648 428.171 196.648Z" fill="#272727"/>
<path d="M141.829 213.483C143.943 213.483 145.657 211.774 145.657 209.665C145.657 207.556 143.943 205.846 141.829 205.846C139.714 205.846 138 207.556 138 209.665C138 211.774 139.714 213.483 141.829 213.483Z" fill="#272727"/>
<path d="M159.724 213.483C161.839 213.483 163.553 211.774 163.553 209.665C163.553 207.556 161.839 205.846 159.724 205.846C157.609 205.846 155.895 207.556 155.895 209.665C155.895 211.774 157.609 213.483 159.724 213.483Z" fill="#272727"/>
<path d="M177.622 213.483C179.736 213.483 181.45 211.774 181.45 209.665C181.45 207.556 179.736 205.846 177.622 205.846C175.507 205.846 173.793 207.556 173.793 209.665C173.793 211.774 175.507 213.483 177.622 213.483Z" fill="#272727"/>
<path d="M195.519 213.483C197.634 213.483 199.348 211.774 199.348 209.665C199.348 207.556 197.634 205.846 195.519 205.846C193.405 205.846 191.69 207.556 191.69 209.665C191.69 211.774 193.405 213.483 195.519 213.483Z" fill="#272727"/>
<path d="M213.414 213.483C215.529 213.483 217.243 211.774 217.243 209.665C217.243 207.556 215.529 205.846 213.414 205.846C211.3 205.846 209.586 207.556 209.586 209.665C209.586 211.774 211.3 213.483 213.414 213.483Z" fill="#272727"/>
<path d="M231.31 213.483C233.424 213.483 235.138 211.774 235.138 209.665C235.138 207.556 233.424 205.846 231.31 205.846C229.195 205.846 227.481 207.556 227.481 209.665C227.481 211.774 229.195 213.483 231.31 213.483Z" fill="#272727"/>
<path d="M249.207 213.483C251.322 213.483 253.036 211.774 253.036 209.665C253.036 207.556 251.322 205.846 249.207 205.846C247.093 205.846 245.378 207.556 245.378 209.665C245.378 211.774 247.093 213.483 249.207 213.483Z" fill="#272727"/>
<path d="M267.105 213.483C269.219 213.483 270.933 211.774 270.933 209.665C270.933 207.556 269.219 205.846 267.105 205.846C264.99 205.846 263.276 207.556 263.276 209.665C263.276 211.774 264.99 213.483 267.105 213.483Z" fill="#272727"/>
<path d="M285 213.483C287.115 213.483 288.829 211.774 288.829 209.665C288.829 207.556 287.115 205.846 285 205.846C282.885 205.846 281.171 207.556 281.171 209.665C281.171 211.774 282.885 213.483 285 213.483Z" fill="#272727"/>
<path d="M302.895 213.483C305.01 213.483 306.724 211.774 306.724 209.665C306.724 207.556 305.01 205.846 302.895 205.846C300.781 205.846 299.067 207.556 299.067 209.665C299.067 211.774 300.781 213.483 302.895 213.483Z" fill="#272727"/>
<path d="M320.793 213.483C322.907 213.483 324.622 211.774 324.622 209.665C324.622 207.556 322.907 205.846 320.793 205.846C318.678 205.846 316.964 207.556 316.964 209.665C316.964 211.774 318.678 213.483 320.793 213.483Z" fill="#272727"/>
<path d="M338.69 213.483C340.805 213.483 342.519 211.774 342.519 209.665C342.519 207.556 340.805 205.846 338.69 205.846C336.576 205.846 334.862 207.556 334.862 209.665C334.862 211.774 336.576 213.483 338.69 213.483Z" fill="#272727"/>
<path d="M356.586 213.483C358.7 213.483 360.414 211.774 360.414 209.665C360.414 207.556 358.7 205.846 356.586 205.846C354.471 205.846 352.757 207.556 352.757 209.665C352.757 211.774 354.471 213.483 356.586 213.483Z" fill="#272727"/>
<path d="M374.481 213.483C376.595 213.483 378.31 211.774 378.31 209.665C378.31 207.556 376.595 205.846 374.481 205.846C372.366 205.846 370.652 207.556 370.652 209.665C370.652 211.774 372.366 213.483 374.481 213.483Z" fill="#272727"/>
<path d="M392.378 213.483C394.493 213.483 396.207 211.774 396.207 209.665C396.207 207.556 394.493 205.846 392.378 205.846C390.264 205.846 388.55 207.556 388.55 209.665C388.55 211.774 390.264 213.483 392.378 213.483Z" fill="#272727"/>
<path d="M410.276 213.483C412.391 213.483 414.105 211.774 414.105 209.665C414.105 207.556 412.391 205.846 410.276 205.846C408.161 205.846 406.447 207.556 406.447 209.665C406.447 211.774 408.161 213.483 410.276 213.483Z" fill="#272727"/>
<path d="M428.171 213.483C430.286 213.483 432 211.774 432 209.665C432 207.556 430.286 205.846 428.171 205.846C426.057 205.846 424.343 207.556 424.343 209.665C424.343 211.774 426.057 213.483 428.171 213.483Z" fill="#272727"/>
<path d="M141.829 230.318C143.943 230.318 145.657 228.609 145.657 226.5C145.657 224.391 143.943 222.682 141.829 222.682C139.714 222.682 138 224.391 138 226.5C138 228.609 139.714 230.318 141.829 230.318Z" fill="#272727"/>
<path d="M159.724 230.318C161.839 230.318 163.553 228.609 163.553 226.5C163.553 224.391 161.839 222.682 159.724 222.682C157.609 222.682 155.895 224.391 155.895 226.5C155.895 228.609 157.609 230.318 159.724 230.318Z" fill="#272727"/>
<path d="M177.622 230.318C179.736 230.318 181.45 228.609 181.45 226.5C181.45 224.391 179.736 222.682 177.622 222.682C175.507 222.682 173.793 224.391 173.793 226.5C173.793 228.609 175.507 230.318 177.622 230.318Z" fill="#272727"/>
<path d="M195.519 230.318C197.634 230.318 199.348 228.609 199.348 226.5C199.348 224.391 197.634 222.682 195.519 222.682C193.405 222.682 191.69 224.391 191.69 226.5C191.69 228.609 193.405 230.318 195.519 230.318Z" fill="#272727"/>
<path d="M213.414 230.318C215.529 230.318 217.243 228.609 217.243 226.5C217.243 224.391 215.529 222.682 213.414 222.682C211.3 222.682 209.586 224.391 209.586 226.5C209.586 228.609 211.3 230.318 213.414 230.318Z" fill="#272727"/>
<path d="M231.31 230.318C233.424 230.318 235.138 228.609 235.138 226.5C235.138 224.391 233.424 222.682 231.31 222.682C229.195 222.682 227.481 224.391 227.481 226.5C227.481 228.609 229.195 230.318 231.31 230.318Z" fill="#272727"/>
<path d="M249.207 230.318C251.322 230.318 253.036 228.609 253.036 226.5C253.036 224.391 251.322 222.682 249.207 222.682C247.093 222.682 245.378 224.391 245.378 226.5C245.378 228.609 247.093 230.318 249.207 230.318Z" fill="#272727"/>
<path d="M267.105 230.318C269.219 230.318 270.933 228.609 270.933 226.5C270.933 224.391 269.219 222.682 267.105 222.682C264.99 222.682 263.276 224.391 263.276 226.5C263.276 228.609 264.99 230.318 267.105 230.318Z" fill="#272727"/>
<path d="M285 230.318C287.115 230.318 288.829 228.609 288.829 226.5C288.829 224.391 287.115 222.682 285 222.682C282.885 222.682 281.171 224.391 281.171 226.5C281.171 228.609 282.885 230.318 285 230.318Z" fill="#272727"/>
<path d="M302.895 230.318C305.01 230.318 306.724 228.609 306.724 226.5C306.724 224.391 305.01 222.682 302.895 222.682C300.781 222.682 299.067 224.391 299.067 226.5C299.067 228.609 300.781 230.318 302.895 230.318Z" fill="#272727"/>
<path d="M320.793 230.318C322.907 230.318 324.622 228.609 324.622 226.5C324.622 224.391 322.907 222.682 320.793 222.682C318.678 222.682 316.964 224.391 316.964 226.5C316.964 228.609 318.678 230.318 320.793 230.318Z" fill="#272727"/>
<path d="M338.69 230.318C340.805 230.318 342.519 228.609 342.519 226.5C342.519 224.391 340.805 222.682 338.69 222.682C336.576 222.682 334.862 224.391 334.862 226.5C334.862 228.609 336.576 230.318 338.69 230.318Z" fill="#272727"/>
<path d="M356.586 230.318C358.7 230.318 360.414 228.609 360.414 226.5C360.414 224.391 358.7 222.682 356.586 222.682C354.471 222.682 352.757 224.391 352.757 226.5C352.757 228.609 354.471 230.318 356.586 230.318Z" fill="#272727"/>
<path d="M374.481 230.318C376.595 230.318 378.31 228.609 378.31 226.5C378.31 224.391 376.595 222.682 374.481 222.682C372.366 222.682 370.652 224.391 370.652 226.5C370.652 228.609 372.366 230.318 374.481 230.318Z" fill="#272727"/>
<path d="M392.378 230.318C394.493 230.318 396.207 228.609 396.207 226.5C396.207 224.391 394.493 222.682 392.378 222.682C390.264 222.682 388.55 224.391 388.55 226.5C388.55 228.609 390.264 230.318 392.378 230.318Z" fill="#272727"/>
<path d="M410.276 230.318C412.391 230.318 414.105 228.609 414.105 226.5C414.105 224.391 412.391 222.682 410.276 222.682C408.161 222.682 406.447 224.391 406.447 226.5C406.447 228.609 408.161 230.318 410.276 230.318Z" fill="#272727"/>
<path d="M428.171 230.318C430.286 230.318 432 228.609 432 226.5C432 224.391 430.286 222.682 428.171 222.682C426.057 222.682 424.343 224.391 424.343 226.5C424.343 228.609 426.057 230.318 428.171 230.318Z" fill="#272727"/>
<path d="M141.829 247.154C143.943 247.154 145.657 245.444 145.657 243.335C145.657 241.226 143.943 239.517 141.829 239.517C139.714 239.517 138 241.226 138 243.335C138 245.444 139.714 247.154 141.829 247.154Z" fill="#272727"/>
<path d="M159.724 247.154C161.839 247.154 163.553 245.444 163.553 243.335C163.553 241.226 161.839 239.517 159.724 239.517C157.609 239.517 155.895 241.226 155.895 243.335C155.895 245.444 157.609 247.154 159.724 247.154Z" fill="#272727"/>
<path d="M177.622 247.154C179.736 247.154 181.45 245.444 181.45 243.335C181.45 241.226 179.736 239.517 177.622 239.517C175.507 239.517 173.793 241.226 173.793 243.335C173.793 245.444 175.507 247.154 177.622 247.154Z" fill="#272727"/>
<path d="M195.519 247.154C197.634 247.154 199.348 245.444 199.348 243.335C199.348 241.226 197.634 239.517 195.519 239.517C193.405 239.517 191.69 241.226 191.69 243.335C191.69 245.444 193.405 247.154 195.519 247.154Z" fill="#272727"/>
<path d="M213.414 247.154C215.529 247.154 217.243 245.444 217.243 243.335C217.243 241.226 215.529 239.517 213.414 239.517C211.3 239.517 209.586 241.226 209.586 243.335C209.586 245.444 211.3 247.154 213.414 247.154Z" fill="#272727"/>
<path d="M231.31 247.154C233.424 247.154 235.138 245.444 235.138 243.335C235.138 241.226 233.424 239.517 231.31 239.517C229.195 239.517 227.481 241.226 227.481 243.335C227.481 245.444 229.195 247.154 231.31 247.154Z" fill="#272727"/>
<path d="M249.207 247.154C251.322 247.154 253.036 245.444 253.036 243.335C253.036 241.226 251.322 239.517 249.207 239.517C247.093 239.517 245.378 241.226 245.378 243.335C245.378 245.444 247.093 247.154 249.207 247.154Z" fill="#272727"/>
<path d="M267.105 247.154C269.219 247.154 270.933 245.444 270.933 243.335C270.933 241.226 269.219 239.517 267.105 239.517C264.99 239.517 263.276 241.226 263.276 243.335C263.276 245.444 264.99 247.154 267.105 247.154Z" fill="#272727"/>
<path d="M285 247.154C287.115 247.154 288.829 245.444 288.829 243.335C288.829 241.226 287.115 239.517 285 239.517C282.885 239.517 281.171 241.226 281.171 243.335C281.171 245.444 282.885 247.154 285 247.154Z" fill="#272727"/>
<path d="M302.895 247.154C305.01 247.154 306.724 245.444 306.724 243.335C306.724 241.226 305.01 239.517 302.895 239.517C300.781 239.517 299.067 241.226 299.067 243.335C299.067 245.444 300.781 247.154 302.895 247.154Z" fill="#272727"/>
<path d="M320.793 247.154C322.907 247.154 324.622 245.444 324.622 243.335C324.622 241.226 322.907 239.517 320.793 239.517C318.678 239.517 316.964 241.226 316.964 243.335C316.964 245.444 318.678 247.154 320.793 247.154Z" fill="#272727"/>
<path d="M338.69 247.154C340.805 247.154 342.519 245.444 342.519 243.335C342.519 241.226 340.805 239.517 338.69 239.517C336.576 239.517 334.862 241.226 334.862 243.335C334.862 245.444 336.576 247.154 338.69 247.154Z" fill="#272727"/>
<path d="M356.586 247.154C358.7 247.154 360.414 245.444 360.414 243.335C360.414 241.226 358.7 239.517 356.586 239.517C354.471 239.517 352.757 241.226 352.757 243.335C352.757 245.444 354.471 247.154 356.586 247.154Z" fill="#272727"/>
<path d="M374.481 247.154C376.595 247.154 378.31 245.444 378.31 243.335C378.31 241.226 376.595 239.517 374.481 239.517C372.366 239.517 370.652 241.226 370.652 243.335C370.652 245.444 372.366 247.154 374.481 247.154Z" fill="#272727"/>
<path d="M392.378 247.154C394.493 247.154 396.207 245.444 396.207 243.335C396.207 241.226 394.493 239.517 392.378 239.517C390.264 239.517 388.55 241.226 388.55 243.335C388.55 245.444 390.264 247.154 392.378 247.154Z" fill="#272727"/>
<path d="M410.276 247.154C412.391 247.154 414.105 245.444 414.105 243.335C414.105 241.226 412.391 239.517 410.276 239.517C408.161 239.517 406.447 241.226 406.447 243.335C406.447 245.444 408.161 247.154 410.276 247.154Z" fill="#272727"/>
<path d="M428.171 247.154C430.286 247.154 432 245.444 432 243.335C432 241.226 430.286 239.517 428.171 239.517C426.057 239.517 424.343 241.226 424.343 243.335C424.343 245.444 426.057 247.154 428.171 247.154Z" fill="#272727"/>
<path d="M141.829 263.989C143.943 263.989 145.657 262.279 145.657 260.17C145.657 258.062 143.943 256.352 141.829 256.352C139.714 256.352 138 258.062 138 260.17C138 262.279 139.714 263.989 141.829 263.989Z" fill="#272727"/>
<path d="M159.724 263.989C161.839 263.989 163.553 262.279 163.553 260.17C163.553 258.062 161.839 256.352 159.724 256.352C157.609 256.352 155.895 258.062 155.895 260.17C155.895 262.279 157.609 263.989 159.724 263.989Z" fill="#272727"/>
<path d="M177.622 263.989C179.736 263.989 181.45 262.279 181.45 260.17C181.45 258.062 179.736 256.352 177.622 256.352C175.507 256.352 173.793 258.062 173.793 260.17C173.793 262.279 175.507 263.989 177.622 263.989Z" fill="#272727"/>
<path d="M195.519 263.989C197.634 263.989 199.348 262.279 199.348 260.17C199.348 258.062 197.634 256.352 195.519 256.352C193.405 256.352 191.69 258.062 191.69 260.17C191.69 262.279 193.405 263.989 195.519 263.989Z" fill="#272727"/>
<path d="M213.414 263.989C215.529 263.989 217.243 262.279 217.243 260.17C217.243 258.062 215.529 256.352 213.414 256.352C211.3 256.352 209.586 258.062 209.586 260.17C209.586 262.279 211.3 263.989 213.414 263.989Z" fill="#272727"/>
<path d="M231.31 263.989C233.424 263.989 235.138 262.279 235.138 260.17C235.138 258.062 233.424 256.352 231.31 256.352C229.195 256.352 227.481 258.062 227.481 260.17C227.481 262.279 229.195 263.989 231.31 263.989Z" fill="#272727"/>
<path d="M249.207 263.989C251.322 263.989 253.036 262.279 253.036 260.17C253.036 258.062 251.322 256.352 249.207 256.352C247.093 256.352 245.378 258.062 245.378 260.17C245.378 262.279 247.093 263.989 249.207 263.989Z" fill="#272727"/>
<path d="M267.105 263.989C269.219 263.989 270.933 262.279 270.933 260.17C270.933 258.062 269.219 256.352 267.105 256.352C264.99 256.352 263.276 258.062 263.276 260.17C263.276 262.279 264.99 263.989 267.105 263.989Z" fill="#272727"/>
<path d="M285 263.989C287.115 263.989 288.829 262.279 288.829 260.17C288.829 258.062 287.115 256.352 285 256.352C282.885 256.352 281.171 258.062 281.171 260.17C281.171 262.279 282.885 263.989 285 263.989Z" fill="#272727"/>
<path d="M302.895 263.989C305.01 263.989 306.724 262.279 306.724 260.17C306.724 258.062 305.01 256.352 302.895 256.352C300.781 256.352 299.067 258.062 299.067 260.17C299.067 262.279 300.781 263.989 302.895 263.989Z" fill="#272727"/>
<path d="M320.793 263.989C322.907 263.989 324.622 262.279 324.622 260.17C324.622 258.062 322.907 256.352 320.793 256.352C318.678 256.352 316.964 258.062 316.964 260.17C316.964 262.279 318.678 263.989 320.793 263.989Z" fill="#272727"/>
<path d="M338.69 263.989C340.805 263.989 342.519 262.279 342.519 260.17C342.519 258.062 340.805 256.352 338.69 256.352C336.576 256.352 334.862 258.062 334.862 260.17C334.862 262.279 336.576 263.989 338.69 263.989Z" fill="#272727"/>
<path d="M356.586 263.989C358.7 263.989 360.414 262.279 360.414 260.17C360.414 258.062 358.7 256.352 356.586 256.352C354.471 256.352 352.757 258.062 352.757 260.17C352.757 262.279 354.471 263.989 356.586 263.989Z" fill="#272727"/>
<path d="M374.481 263.989C376.595 263.989 378.31 262.279 378.31 260.17C378.31 258.062 376.595 256.352 374.481 256.352C372.366 256.352 370.652 258.062 370.652 260.17C370.652 262.279 372.366 263.989 374.481 263.989Z" fill="#272727"/>
<path d="M392.378 263.989C394.493 263.989 396.207 262.279 396.207 260.17C396.207 258.062 394.493 256.352 392.378 256.352C390.264 256.352 388.55 258.062 388.55 260.17C388.55 262.279 390.264 263.989 392.378 263.989Z" fill="#272727"/>
<path d="M410.276 263.989C412.391 263.989 414.105 262.279 414.105 260.17C414.105 258.062 412.391 256.352 410.276 256.352C408.161 256.352 406.447 258.062 406.447 260.17C406.447 262.279 408.161 263.989 410.276 263.989Z" fill="#272727"/>
<path d="M428.171 263.989C430.286 263.989 432 262.279 432 260.17C432 258.062 430.286 256.352 428.171 256.352C426.057 256.352 424.343 258.062 424.343 260.17C424.343 262.279 426.057 263.989 428.171 263.989Z" fill="#272727"/>
<path d="M141.829 280.824C143.943 280.824 145.657 279.114 145.657 277.006C145.657 274.897 143.943 273.187 141.829 273.187C139.714 273.187 138 274.897 138 277.006C138 279.114 139.714 280.824 141.829 280.824Z" fill="#272727"/>
<path d="M159.724 280.824C161.839 280.824 163.553 279.114 163.553 277.006C163.553 274.897 161.839 273.187 159.724 273.187C157.609 273.187 155.895 274.897 155.895 277.006C155.895 279.114 157.609 280.824 159.724 280.824Z" fill="#272727"/>
<path d="M177.622 280.824C179.736 280.824 181.45 279.114 181.45 277.006C181.45 274.897 179.736 273.187 177.622 273.187C175.507 273.187 173.793 274.897 173.793 277.006C173.793 279.114 175.507 280.824 177.622 280.824Z" fill="#272727"/>
<path d="M195.519 280.824C197.634 280.824 199.348 279.114 199.348 277.006C199.348 274.897 197.634 273.187 195.519 273.187C193.405 273.187 191.69 274.897 191.69 277.006C191.69 279.114 193.405 280.824 195.519 280.824Z" fill="#272727"/>
<path d="M213.414 280.824C215.529 280.824 217.243 279.114 217.243 277.006C217.243 274.897 215.529 273.187 213.414 273.187C211.3 273.187 209.586 274.897 209.586 277.006C209.586 279.114 211.3 280.824 213.414 280.824Z" fill="#272727"/>
<path d="M231.31 280.824C233.424 280.824 235.138 279.114 235.138 277.006C235.138 274.897 233.424 273.187 231.31 273.187C229.195 273.187 227.481 274.897 227.481 277.006C227.481 279.114 229.195 280.824 231.31 280.824Z" fill="#272727"/>
<path d="M249.207 280.824C251.322 280.824 253.036 279.114 253.036 277.006C253.036 274.897 251.322 273.187 249.207 273.187C247.093 273.187 245.378 274.897 245.378 277.006C245.378 279.114 247.093 280.824 249.207 280.824Z" fill="#272727"/>
<path d="M267.105 280.824C269.219 280.824 270.933 279.114 270.933 277.006C270.933 274.897 269.219 273.187 267.105 273.187C264.99 273.187 263.276 274.897 263.276 277.006C263.276 279.114 264.99 280.824 267.105 280.824Z" fill="#272727"/>
<path d="M285 280.824C287.115 280.824 288.829 279.114 288.829 277.006C288.829 274.897 287.115 273.187 285 273.187C282.885 273.187 281.171 274.897 281.171 277.006C281.171 279.114 282.885 280.824 285 280.824Z" fill="#272727"/>
<path d="M302.895 280.824C305.01 280.824 306.724 279.114 306.724 277.006C306.724 274.897 305.01 273.187 302.895 273.187C300.781 273.187 299.067 274.897 299.067 277.006C299.067 279.114 300.781 280.824 302.895 280.824Z" fill="#272727"/>
<path d="M320.793 280.824C322.907 280.824 324.622 279.114 324.622 277.006C324.622 274.897 322.907 273.187 320.793 273.187C318.678 273.187 316.964 274.897 316.964 277.006C316.964 279.114 318.678 280.824 320.793 280.824Z" fill="#272727"/>
<path d="M338.69 280.824C340.805 280.824 342.519 279.114 342.519 277.006C342.519 274.897 340.805 273.187 338.69 273.187C336.576 273.187 334.862 274.897 334.862 277.006C334.862 279.114 336.576 280.824 338.69 280.824Z" fill="#272727"/>
<path d="M356.586 280.824C358.7 280.824 360.414 279.114 360.414 277.006C360.414 274.897 358.7 273.187 356.586 273.187C354.471 273.187 352.757 274.897 352.757 277.006C352.757 279.114 354.471 280.824 356.586 280.824Z" fill="#272727"/>
<path d="M374.481 280.824C376.595 280.824 378.31 279.114 378.31 277.006C378.31 274.897 376.595 273.187 374.481 273.187C372.366 273.187 370.652 274.897 370.652 277.006C370.652 279.114 372.366 280.824 374.481 280.824Z" fill="#272727"/>
<path d="M392.378 280.824C394.493 280.824 396.207 279.114 396.207 277.006C396.207 274.897 394.493 273.187 392.378 273.187C390.264 273.187 388.55 274.897 388.55 277.006C388.55 279.114 390.264 280.824 392.378 280.824Z" fill="#272727"/>
<path d="M410.276 280.824C412.391 280.824 414.105 279.114 414.105 277.006C414.105 274.897 412.391 273.187 410.276 273.187C408.161 273.187 406.447 274.897 406.447 277.006C406.447 279.114 408.161 280.824 410.276 280.824Z" fill="#272727"/>
<path d="M428.171 280.824C430.286 280.824 432 279.114 432 277.006C432 274.897 430.286 273.187 428.171 273.187C426.057 273.187 424.343 274.897 424.343 277.006C424.343 279.114 426.057 280.824 428.171 280.824Z" fill="#272727"/>
<path d="M141.829 297.659C143.943 297.659 145.657 295.95 145.657 293.841C145.657 291.732 143.943 290.023 141.829 290.023C139.714 290.023 138 291.732 138 293.841C138 295.95 139.714 297.659 141.829 297.659Z" fill="#272727"/>
<path d="M159.724 297.659C161.839 297.659 163.553 295.95 163.553 293.841C163.553 291.732 161.839 290.023 159.724 290.023C157.609 290.023 155.895 291.732 155.895 293.841C155.895 295.95 157.609 297.659 159.724 297.659Z" fill="#272727"/>
<path d="M177.622 297.659C179.736 297.659 181.45 295.95 181.45 293.841C181.45 291.732 179.736 290.023 177.622 290.023C175.507 290.023 173.793 291.732 173.793 293.841C173.793 295.95 175.507 297.659 177.622 297.659Z" fill="#272727"/>
<path d="M195.519 297.659C197.634 297.659 199.348 295.95 199.348 293.841C199.348 291.732 197.634 290.023 195.519 290.023C193.405 290.023 191.69 291.732 191.69 293.841C191.69 295.95 193.405 297.659 195.519 297.659Z" fill="#272727"/>
<path d="M213.414 297.659C215.529 297.659 217.243 295.95 217.243 293.841C217.243 291.732 215.529 290.023 213.414 290.023C211.3 290.023 209.586 291.732 209.586 293.841C209.586 295.95 211.3 297.659 213.414 297.659Z" fill="#272727"/>
<path d="M231.31 297.659C233.424 297.659 235.138 295.95 235.138 293.841C235.138 291.732 233.424 290.023 231.31 290.023C229.195 290.023 227.481 291.732 227.481 293.841C227.481 295.95 229.195 297.659 231.31 297.659Z" fill="#272727"/>
<path d="M249.207 297.659C251.322 297.659 253.036 295.95 253.036 293.841C253.036 291.732 251.322 290.023 249.207 290.023C247.093 290.023 245.378 291.732 245.378 293.841C245.378 295.95 247.093 297.659 249.207 297.659Z" fill="#272727"/>
<path d="M267.105 297.659C269.219 297.659 270.933 295.95 270.933 293.841C270.933 291.732 269.219 290.023 267.105 290.023C264.99 290.023 263.276 291.732 263.276 293.841C263.276 295.95 264.99 297.659 267.105 297.659Z" fill="#272727"/>
<path d="M285 297.659C287.115 297.659 288.829 295.95 288.829 293.841C288.829 291.732 287.115 290.023 285 290.023C282.885 290.023 281.171 291.732 281.171 293.841C281.171 295.95 282.885 297.659 285 297.659Z" fill="#272727"/>
<path d="M302.895 297.659C305.01 297.659 306.724 295.95 306.724 293.841C306.724 291.732 305.01 290.023 302.895 290.023C300.781 290.023 299.067 291.732 299.067 293.841C299.067 295.95 300.781 297.659 302.895 297.659Z" fill="#272727"/>
<path d="M320.793 297.659C322.907 297.659 324.622 295.95 324.622 293.841C324.622 291.732 322.907 290.023 320.793 290.023C318.678 290.023 316.964 291.732 316.964 293.841C316.964 295.95 318.678 297.659 320.793 297.659Z" fill="#272727"/>
<path d="M338.69 297.659C340.805 297.659 342.519 295.95 342.519 293.841C342.519 291.732 340.805 290.023 338.69 290.023C336.576 290.023 334.862 291.732 334.862 293.841C334.862 295.95 336.576 297.659 338.69 297.659Z" fill="#272727"/>
<path d="M356.586 297.659C358.7 297.659 360.414 295.95 360.414 293.841C360.414 291.732 358.7 290.023 356.586 290.023C354.471 290.023 352.757 291.732 352.757 293.841C352.757 295.95 354.471 297.659 356.586 297.659Z" fill="#272727"/>
<path d="M374.481 297.659C376.595 297.659 378.31 295.95 378.31 293.841C378.31 291.732 376.595 290.023 374.481 290.023C372.366 290.023 370.652 291.732 370.652 293.841C370.652 295.95 372.366 297.659 374.481 297.659Z" fill="#272727"/>
<path d="M392.378 297.659C394.493 297.659 396.207 295.95 396.207 293.841C396.207 291.732 394.493 290.023 392.378 290.023C390.264 290.023 388.55 291.732 388.55 293.841C388.55 295.95 390.264 297.659 392.378 297.659Z" fill="#272727"/>
<path d="M410.276 297.659C412.391 297.659 414.105 295.95 414.105 293.841C414.105 291.732 412.391 290.023 410.276 290.023C408.161 290.023 406.447 291.732 406.447 293.841C406.447 295.95 408.161 297.659 410.276 297.659Z" fill="#272727"/>
<path d="M428.171 297.659C430.286 297.659 432 295.95 432 293.841C432 291.732 430.286 290.023 428.171 290.023C426.057 290.023 424.343 291.732 424.343 293.841C424.343 295.95 426.057 297.659 428.171 297.659Z" fill="#272727"/>
<path d="M141.829 314.494C143.943 314.494 145.657 312.785 145.657 310.676C145.657 308.567 143.943 306.858 141.829 306.858C139.714 306.858 138 308.567 138 310.676C138 312.785 139.714 314.494 141.829 314.494Z" fill="#272727"/>
<path d="M159.724 314.494C161.839 314.494 163.553 312.785 163.553 310.676C163.553 308.567 161.839 306.858 159.724 306.858C157.609 306.858 155.895 308.567 155.895 310.676C155.895 312.785 157.609 314.494 159.724 314.494Z" fill="#272727"/>
<path d="M177.622 314.494C179.736 314.494 181.45 312.785 181.45 310.676C181.45 308.567 179.736 306.858 177.622 306.858C175.507 306.858 173.793 308.567 173.793 310.676C173.793 312.785 175.507 314.494 177.622 314.494Z" fill="#272727"/>
<path d="M195.519 314.494C197.634 314.494 199.348 312.785 199.348 310.676C199.348 308.567 197.634 306.858 195.519 306.858C193.405 306.858 191.69 308.567 191.69 310.676C191.69 312.785 193.405 314.494 195.519 314.494Z" fill="#272727"/>
<path d="M213.414 314.494C215.529 314.494 217.243 312.785 217.243 310.676C217.243 308.567 215.529 306.858 213.414 306.858C211.3 306.858 209.586 308.567 209.586 310.676C209.586 312.785 211.3 314.494 213.414 314.494Z" fill="#272727"/>
<path d="M231.31 314.494C233.424 314.494 235.138 312.785 235.138 310.676C235.138 308.567 233.424 306.858 231.31 306.858C229.195 306.858 227.481 308.567 227.481 310.676C227.481 312.785 229.195 314.494 231.31 314.494Z" fill="#272727"/>
<path d="M249.207 314.494C251.322 314.494 253.036 312.785 253.036 310.676C253.036 308.567 251.322 306.858 249.207 306.858C247.093 306.858 245.378 308.567 245.378 310.676C245.378 312.785 247.093 314.494 249.207 314.494Z" fill="#272727"/>
<path d="M267.105 314.494C269.219 314.494 270.933 312.785 270.933 310.676C270.933 308.567 269.219 306.858 267.105 306.858C264.99 306.858 263.276 308.567 263.276 310.676C263.276 312.785 264.99 314.494 267.105 314.494Z" fill="#272727"/>
<path d="M285 314.494C287.115 314.494 288.829 312.785 288.829 310.676C288.829 308.567 287.115 306.858 285 306.858C282.885 306.858 281.171 308.567 281.171 310.676C281.171 312.785 282.885 314.494 285 314.494Z" fill="#272727"/>
<path d="M302.895 314.494C305.01 314.494 306.724 312.785 306.724 310.676C306.724 308.567 305.01 306.858 302.895 306.858C300.781 306.858 299.067 308.567 299.067 310.676C299.067 312.785 300.781 314.494 302.895 314.494Z" fill="#272727"/>
<path d="M320.793 314.494C322.907 314.494 324.622 312.785 324.622 310.676C324.622 308.567 322.907 306.858 320.793 306.858C318.678 306.858 316.964 308.567 316.964 310.676C316.964 312.785 318.678 314.494 320.793 314.494Z" fill="#272727"/>
<path d="M338.69 314.494C340.805 314.494 342.519 312.785 342.519 310.676C342.519 308.567 340.805 306.858 338.69 306.858C336.576 306.858 334.862 308.567 334.862 310.676C334.862 312.785 336.576 314.494 338.69 314.494Z" fill="#272727"/>
<path d="M356.586 314.494C358.7 314.494 360.414 312.785 360.414 310.676C360.414 308.567 358.7 306.858 356.586 306.858C354.471 306.858 352.757 308.567 352.757 310.676C352.757 312.785 354.471 314.494 356.586 314.494Z" fill="#272727"/>
<path d="M374.481 314.494C376.595 314.494 378.31 312.785 378.31 310.676C378.31 308.567 376.595 306.858 374.481 306.858C372.366 306.858 370.652 308.567 370.652 310.676C370.652 312.785 372.366 314.494 374.481 314.494Z" fill="#272727"/>
<path d="M392.378 314.494C394.493 314.494 396.207 312.785 396.207 310.676C396.207 308.567 394.493 306.858 392.378 306.858C390.264 306.858 388.55 308.567 388.55 310.676C388.55 312.785 390.264 314.494 392.378 314.494Z" fill="#272727"/>
<path d="M410.276 314.494C412.391 314.494 414.105 312.785 414.105 310.676C414.105 308.567 412.391 306.858 410.276 306.858C408.161 306.858 406.447 308.567 406.447 310.676C406.447 312.785 408.161 314.494 410.276 314.494Z" fill="#272727"/>
<path d="M428.171 314.494C430.286 314.494 432 312.785 432 310.676C432 308.567 430.286 306.858 428.171 306.858C426.057 306.858 424.343 308.567 424.343 310.676C424.343 312.785 426.057 314.494 428.171 314.494Z" fill="#272727"/>
<path d="M141.829 331.33C143.943 331.33 145.657 329.62 145.657 327.511C145.657 325.402 143.943 323.693 141.829 323.693C139.714 323.693 138 325.402 138 327.511C138 329.62 139.714 331.33 141.829 331.33Z" fill="#272727"/>
<path d="M159.724 331.33C161.839 331.33 163.553 329.62 163.553 327.511C163.553 325.402 161.839 323.693 159.724 323.693C157.609 323.693 155.895 325.402 155.895 327.511C155.895 329.62 157.609 331.33 159.724 331.33Z" fill="#272727"/>
<path d="M177.622 331.33C179.736 331.33 181.45 329.62 181.45 327.511C181.45 325.402 179.736 323.693 177.622 323.693C175.507 323.693 173.793 325.402 173.793 327.511C173.793 329.62 175.507 331.33 177.622 331.33Z" fill="#272727"/>
<path d="M195.519 331.33C197.634 331.33 199.348 329.62 199.348 327.511C199.348 325.402 197.634 323.693 195.519 323.693C193.405 323.693 191.69 325.402 191.69 327.511C191.69 329.62 193.405 331.33 195.519 331.33Z" fill="#272727"/>
<path d="M213.414 331.33C215.529 331.33 217.243 329.62 217.243 327.511C217.243 325.402 215.529 323.693 213.414 323.693C211.3 323.693 209.586 325.402 209.586 327.511C209.586 329.62 211.3 331.33 213.414 331.33Z" fill="#272727"/>
<path d="M231.31 331.33C233.424 331.33 235.138 329.62 235.138 327.511C235.138 325.402 233.424 323.693 231.31 323.693C229.195 323.693 227.481 325.402 227.481 327.511C227.481 329.62 229.195 331.33 231.31 331.33Z" fill="#272727"/>
<path d="M249.207 331.33C251.322 331.33 253.036 329.62 253.036 327.511C253.036 325.402 251.322 323.693 249.207 323.693C247.093 323.693 245.378 325.402 245.378 327.511C245.378 329.62 247.093 331.33 249.207 331.33Z" fill="#272727"/>
<path d="M267.105 331.33C269.219 331.33 270.933 329.62 270.933 327.511C270.933 325.402 269.219 323.693 267.105 323.693C264.99 323.693 263.276 325.402 263.276 327.511C263.276 329.62 264.99 331.33 267.105 331.33Z" fill="#272727"/>
<path d="M285 331.33C287.115 331.33 288.829 329.62 288.829 327.511C288.829 325.402 287.115 323.693 285 323.693C282.885 323.693 281.171 325.402 281.171 327.511C281.171 329.62 282.885 331.33 285 331.33Z" fill="#272727"/>
<path d="M302.895 331.33C305.01 331.33 306.724 329.62 306.724 327.511C306.724 325.402 305.01 323.693 302.895 323.693C300.781 323.693 299.067 325.402 299.067 327.511C299.067 329.62 300.781 331.33 302.895 331.33Z" fill="#272727"/>
<path d="M320.793 331.33C322.907 331.33 324.622 329.62 324.622 327.511C324.622 325.402 322.907 323.693 320.793 323.693C318.678 323.693 316.964 325.402 316.964 327.511C316.964 329.62 318.678 331.33 320.793 331.33Z" fill="#272727"/>
<path d="M338.69 331.33C340.805 331.33 342.519 329.62 342.519 327.511C342.519 325.402 340.805 323.693 338.69 323.693C336.576 323.693 334.862 325.402 334.862 327.511C334.862 329.62 336.576 331.33 338.69 331.33Z" fill="#272727"/>
<path d="M356.586 331.33C358.7 331.33 360.414 329.62 360.414 327.511C360.414 325.402 358.7 323.693 356.586 323.693C354.471 323.693 352.757 325.402 352.757 327.511C352.757 329.62 354.471 331.33 356.586 331.33Z" fill="#272727"/>
<path d="M374.481 331.33C376.595 331.33 378.31 329.62 378.31 327.511C378.31 325.402 376.595 323.693 374.481 323.693C372.366 323.693 370.652 325.402 370.652 327.511C370.652 329.62 372.366 331.33 374.481 331.33Z" fill="#272727"/>
<path d="M392.378 331.33C394.493 331.33 396.207 329.62 396.207 327.511C396.207 325.402 394.493 323.693 392.378 323.693C390.264 323.693 388.55 325.402 388.55 327.511C388.55 329.62 390.264 331.33 392.378 331.33Z" fill="#272727"/>
<path d="M410.276 331.33C412.391 331.33 414.105 329.62 414.105 327.511C414.105 325.402 412.391 323.693 410.276 323.693C408.161 323.693 406.447 325.402 406.447 327.511C406.447 329.62 408.161 331.33 410.276 331.33Z" fill="#272727"/>
<path d="M428.171 331.33C430.286 331.33 432 329.62 432 327.511C432 325.402 430.286 323.693 428.171 323.693C426.057 323.693 424.343 325.402 424.343 327.511C424.343 329.62 426.057 331.33 428.171 331.33Z" fill="#272727"/>
<path d="M141.829 348.165C143.943 348.165 145.657 346.455 145.657 344.346C145.657 342.238 143.943 340.528 141.829 340.528C139.714 340.528 138 342.238 138 344.346C138 346.455 139.714 348.165 141.829 348.165Z" fill="#272727"/>
<path d="M159.724 348.165C161.839 348.165 163.553 346.455 163.553 344.346C163.553 342.238 161.839 340.528 159.724 340.528C157.609 340.528 155.895 342.238 155.895 344.346C155.895 346.455 157.609 348.165 159.724 348.165Z" fill="#272727"/>
<path d="M177.622 348.165C179.736 348.165 181.45 346.455 181.45 344.346C181.45 342.238 179.736 340.528 177.622 340.528C175.507 340.528 173.793 342.238 173.793 344.346C173.793 346.455 175.507 348.165 177.622 348.165Z" fill="#272727"/>
<path d="M195.519 348.165C197.634 348.165 199.348 346.455 199.348 344.346C199.348 342.238 197.634 340.528 195.519 340.528C193.405 340.528 191.69 342.238 191.69 344.346C191.69 346.455 193.405 348.165 195.519 348.165Z" fill="#272727"/>
<path d="M213.414 348.165C215.529 348.165 217.243 346.455 217.243 344.346C217.243 342.238 215.529 340.528 213.414 340.528C211.3 340.528 209.586 342.238 209.586 344.346C209.586 346.455 211.3 348.165 213.414 348.165Z" fill="#272727"/>
<path d="M231.31 348.165C233.424 348.165 235.138 346.455 235.138 344.346C235.138 342.238 233.424 340.528 231.31 340.528C229.195 340.528 227.481 342.238 227.481 344.346C227.481 346.455 229.195 348.165 231.31 348.165Z" fill="#272727"/>
<path d="M249.207 348.165C251.322 348.165 253.036 346.455 253.036 344.346C253.036 342.238 251.322 340.528 249.207 340.528C247.093 340.528 245.378 342.238 245.378 344.346C245.378 346.455 247.093 348.165 249.207 348.165Z" fill="#272727"/>
<path d="M267.105 348.165C269.219 348.165 270.933 346.455 270.933 344.346C270.933 342.238 269.219 340.528 267.105 340.528C264.99 340.528 263.276 342.238 263.276 344.346C263.276 346.455 264.99 348.165 267.105 348.165Z" fill="#272727"/>
<path d="M285 348.165C287.115 348.165 288.829 346.455 288.829 344.346C288.829 342.238 287.115 340.528 285 340.528C282.885 340.528 281.171 342.238 281.171 344.346C281.171 346.455 282.885 348.165 285 348.165Z" fill="#272727"/>
<path d="M302.895 348.165C305.01 348.165 306.724 346.455 306.724 344.346C306.724 342.238 305.01 340.528 302.895 340.528C300.781 340.528 299.067 342.238 299.067 344.346C299.067 346.455 300.781 348.165 302.895 348.165Z" fill="#272727"/>
<path d="M320.793 348.165C322.907 348.165 324.622 346.455 324.622 344.346C324.622 342.238 322.907 340.528 320.793 340.528C318.678 340.528 316.964 342.238 316.964 344.346C316.964 346.455 318.678 348.165 320.793 348.165Z" fill="#272727"/>
<path d="M338.69 348.165C340.805 348.165 342.519 346.455 342.519 344.346C342.519 342.238 340.805 340.528 338.69 340.528C336.576 340.528 334.862 342.238 334.862 344.346C334.862 346.455 336.576 348.165 338.69 348.165Z" fill="#272727"/>
<path d="M356.586 348.165C358.7 348.165 360.414 346.455 360.414 344.346C360.414 342.238 358.7 340.528 356.586 340.528C354.471 340.528 352.757 342.238 352.757 344.346C352.757 346.455 354.471 348.165 356.586 348.165Z" fill="#272727"/>
<path d="M374.481 348.165C376.595 348.165 378.31 346.455 378.31 344.346C378.31 342.238 376.595 340.528 374.481 340.528C372.366 340.528 370.652 342.238 370.652 344.346C370.652 346.455 372.366 348.165 374.481 348.165Z" fill="#272727"/>
<path d="M392.378 348.165C394.493 348.165 396.207 346.455 396.207 344.346C396.207 342.238 394.493 340.528 392.378 340.528C390.264 340.528 388.55 342.238 388.55 344.346C388.55 346.455 390.264 348.165 392.378 348.165Z" fill="#272727"/>
<path d="M410.276 348.165C412.391 348.165 414.105 346.455 414.105 344.346C414.105 342.238 412.391 340.528 410.276 340.528C408.161 340.528 406.447 342.238 406.447 344.346C406.447 346.455 408.161 348.165 410.276 348.165Z" fill="#272727"/>
<path d="M428.171 348.165C430.286 348.165 432 346.455 432 344.346C432 342.238 430.286 340.528 428.171 340.528C426.057 340.528 424.343 342.238 424.343 344.346C424.343 346.455 426.057 348.165 428.171 348.165Z" fill="#272727"/>
<path d="M141.829 365C143.943 365 145.657 363.291 145.657 361.182C145.657 359.073 143.943 357.363 141.829 357.363C139.714 357.363 138 359.073 138 361.182C138 363.291 139.714 365 141.829 365Z" fill="#272727"/>
<path d="M159.724 365C161.839 365 163.553 363.29 163.553 361.182C163.553 359.073 161.839 357.363 159.724 357.363C157.609 357.363 155.895 359.073 155.895 361.182C155.895 363.29 157.609 365 159.724 365Z" fill="#272727"/>
<path d="M177.622 365C179.736 365 181.45 363.29 181.45 361.182C181.45 359.073 179.736 357.363 177.622 357.363C175.507 357.363 173.793 359.073 173.793 361.182C173.793 363.29 175.507 365 177.622 365Z" fill="#272727"/>
<path d="M195.519 365C197.634 365 199.348 363.29 199.348 361.182C199.348 359.073 197.634 357.363 195.519 357.363C193.405 357.363 191.69 359.073 191.69 361.182C191.69 363.29 193.405 365 195.519 365Z" fill="#272727"/>
<path d="M213.414 365C215.529 365 217.243 363.29 217.243 361.182C217.243 359.073 215.529 357.363 213.414 357.363C211.3 357.363 209.586 359.073 209.586 361.182C209.586 363.29 211.3 365 213.414 365Z" fill="#272727"/>
<path d="M231.31 365C233.424 365 235.138 363.29 235.138 361.182C235.138 359.073 233.424 357.363 231.31 357.363C229.195 357.363 227.481 359.073 227.481 361.182C227.481 363.29 229.195 365 231.31 365Z" fill="#272727"/>
<path d="M249.207 365C251.322 365 253.036 363.29 253.036 361.182C253.036 359.073 251.322 357.363 249.207 357.363C247.093 357.363 245.378 359.073 245.378 361.182C245.378 363.29 247.093 365 249.207 365Z" fill="#272727"/>
<path d="M267.105 365C269.219 365 270.933 363.29 270.933 361.182C270.933 359.073 269.219 357.363 267.105 357.363C264.99 357.363 263.276 359.073 263.276 361.182C263.276 363.29 264.99 365 267.105 365Z" fill="#272727"/>
<path d="M285 365C287.115 365 288.829 363.29 288.829 361.182C288.829 359.073 287.115 357.363 285 357.363C282.885 357.363 281.171 359.073 281.171 361.182C281.171 363.29 282.885 365 285 365Z" fill="#272727"/>
<path d="M302.895 365C305.01 365 306.724 363.29 306.724 361.182C306.724 359.073 305.01 357.363 302.895 357.363C300.781 357.363 299.067 359.073 299.067 361.182C299.067 363.29 300.781 365 302.895 365Z" fill="#272727"/>
<path d="M320.793 365C322.907 365 324.622 363.29 324.622 361.182C324.622 359.073 322.907 357.363 320.793 357.363C318.678 357.363 316.964 359.073 316.964 361.182C316.964 363.29 318.678 365 320.793 365Z" fill="#272727"/>
<path d="M338.69 365C340.805 365 342.519 363.29 342.519 361.182C342.519 359.073 340.805 357.363 338.69 357.363C336.576 357.363 334.862 359.073 334.862 361.182C334.862 363.29 336.576 365 338.69 365Z" fill="#272727"/>
<path d="M356.586 365C358.7 365 360.414 363.29 360.414 361.182C360.414 359.073 358.7 357.363 356.586 357.363C354.471 357.363 352.757 359.073 352.757 361.182C352.757 363.29 354.471 365 356.586 365Z" fill="#272727"/>
<path d="M374.481 365C376.595 365 378.31 363.29 378.31 361.182C378.31 359.073 376.595 357.363 374.481 357.363C372.366 357.363 370.652 359.073 370.652 361.182C370.652 363.29 372.366 365 374.481 365Z" fill="#272727"/>
<path d="M392.378 365C394.493 365 396.207 363.29 396.207 361.182C396.207 359.073 394.493 357.363 392.378 357.363C390.264 357.363 388.55 359.073 388.55 361.182C388.55 363.29 390.264 365 392.378 365Z" fill="#272727"/>
<path d="M410.276 365C412.391 365 414.105 363.29 414.105 361.182C414.105 359.073 412.391 357.363 410.276 357.363C408.161 357.363 406.447 359.073 406.447 361.182C406.447 363.29 408.161 365 410.276 365Z" fill="#272727"/>
<path d="M428.171 365C430.286 365 432 363.29 432 361.182C432 359.073 430.286 357.363 428.171 357.363C426.057 357.363 424.343 359.073 424.343 361.182C424.343 363.29 426.057 365 428.171 365Z" fill="#272727"/>
</g>
<circle cx="1924" cy="173" r="444" fill="url(#paint0_radial_9042_9)"/>
<circle cx="24" cy="811" r="337" fill="url(#paint1_radial_9042_9)"/>
</g>
<defs>
<radialGradient id="paint0_radial_9042_9" cx="0" cy="0" r="1" gradientUnits="userSpaceOnUse" gradientTransform="translate(1924 173) rotate(90) scale(444)">
<stop stop-color="#005CFF"/>
<stop offset="1" stop-opacity="0"/>
</radialGradient>
<radialGradient id="paint1_radial_9042_9" cx="0" cy="0" r="1" gradientUnits="userSpaceOnUse" gradientTransform="translate(24 811) rotate(90) scale(337)">
<stop stop-color="#005CFF"/>
<stop offset="1" stop-opacity="0"/>
</radialGradient>
<clipPath id="clip0_9042_9">
<rect width="2109" height="1140" fill="white"/>
</clipPath>
<clipPath id="clip1_9042_9">
<rect width="294" height="277" fill="white" transform="translate(138 88)"/>
</clipPath>
</defs>
</svg>
